# 3ds Max Wavefront OBJ Exporter v0.97b - (c)2007 guruware
# File Created: 08.10.2018 15:11:08

mtllib Helm and shield.mtl

#
# object Capacete
#

v  5.4308 0.0000 1.1642
v  0.0000 0.0000 3.4137
v  -5.4308 0.0000 1.1642
v  -6.5734 0.0000 -4.2666
v  -5.4308 0.0000 -9.6974
v  -0.0000 0.0000 -11.9469
v  5.4308 0.0000 -9.6974
v  7.6803 0.0000 -4.2666
v  3.5162 17.1981 -9.6974
v  5.7657 17.1981 -4.2666
v  -0.0000 17.1981 -10.7933
v  -4.3239 17.1981 -9.6974
v  -6.5734 17.1981 -4.2666
v  -4.3239 17.1981 1.1642
v  0.0000 17.1981 2.0725
v  3.5162 17.1981 1.1642
# 16 vertices

vn 0.5761 -0.6000 0.5551
vn -0.0000 -0.6008 0.7994
vn -0.6235 -0.5968 0.5050
vn -0.7481 -0.6636 0.0000
vn -0.6235 -0.5968 -0.5050
vn -0.0000 -0.6050 -0.7963
vn 0.5761 -0.6000 -0.5551
vn 0.8087 -0.5882 -0.0000
vn 0.4995 0.6502 -0.5725
vn 0.7411 0.6714 -0.0000
vn 0.0201 0.6755 -0.7371
vn -0.4975 0.6342 -0.5918
vn -0.7764 0.6303 0.0000
vn -0.4865 0.6307 0.6046
vn 0.0168 0.6877 0.7258
vn 0.4867 0.6455 0.5886
# 16 vertex normals

vt 0.5499 0.9326 0.0000
vt 0.4726 0.9646 0.0000
vt 0.3954 0.9326 0.0000
vt 0.3791 0.8554 0.0000
vt 0.3953 0.7783 0.0000
vt 0.4726 0.7461 0.0000
vt 0.5499 0.7781 0.0000
vt 0.5819 0.8554 0.0000
vt 0.4234 0.5295 0.0000
vt 0.4187 0.6130 0.0000
vt 0.1725 0.6097 0.0000
vt 0.1772 0.5261 0.0000
vt 0.4090 0.6961 0.0000
vt 0.1662 0.6616 0.0000
vt 0.1563 0.7241 0.0000
vt 0.1396 0.8057 0.0000
vt 0.3634 0.9324 0.0000
vt 0.1225 0.8872 0.0000
vt 0.4017 0.2802 0.0000
vt 0.4137 0.3627 0.0000
vt 0.1700 0.3913 0.0000
vt 0.1615 0.3293 0.0000
vt 0.4210 0.4459 0.0000
vt 0.1748 0.4425 0.0000
vt 0.1215 0.4638 0.0000
vt 0.1304 0.6409 0.0000
vt 0.0672 0.6465 0.0000
vt 0.0115 0.5841 0.0000
vt 0.0162 0.5006 0.0000
vt 0.0700 0.4681 0.0000
# 30 texture coords

o Capacete
g Capacete
usemtl Material__2
s 1
f 1/1/1 2/2/2 3/3/3 4/4/4 5/5/5 6/6/6 7/7/7 8/8/8 
s 8
f 8/9/8 7/10/7 9/11/9 10/12/10 
f 7/10/7 6/13/6 11/14/11 9/11/9 
f 6/13/6 5/5/5 12/15/12 11/14/11 
f 5/5/5 4/4/4 13/16/13 12/15/12 
f 4/4/4 3/17/3 14/18/14 13/16/13 
f 3/19/3 2/20/2 15/21/15 14/22/14 
f 2/20/2 1/23/1 16/24/16 15/21/15 
f 1/23/1 8/9/8 10/12/10 16/24/16 
s 1
f 16/25/16 10/12/10 9/11/9 11/26/11 12/27/12 13/28/13 14/29/14 15/30/15 
# 10 polygons

#
# object Plane001
#

v  15.0075 0.8740 4.7946
v  17.7638 0.8740 8.5429
v  23.5849 0.8740 14.1658
v  20.8286 0.8740 4.7946
v  26.6496 0.8740 4.7946
v  30.9272 0.8740 9.4249
v  32.4707 0.8740 4.7946
v  15.0075 0.8740 -2.4817
v  20.8286 0.8740 -2.4817
v  26.6496 0.8740 -2.4817
v  32.4707 0.8740 -2.4817
v  15.0075 0.8740 -9.7581
v  20.8286 0.8740 -6.8790
v  26.6496 0.8740 -6.8790
v  32.4707 0.8740 -9.7581
# 15 vertices

vn 0.0000 1.0000 -0.0000
# 1 vertex normals

vt 0.9874 0.7382 0.0000
vt 0.9207 0.8288 0.0000
vt 0.7800 0.9647 0.0000
vt 0.8467 0.7382 0.0000
vt 0.7060 0.7382 0.0000
vt 0.6026 0.8501 0.0000
vt 0.5653 0.7382 0.0000
vt 0.9874 0.5623 0.0000
vt 0.8467 0.5623 0.0000
vt 0.7060 0.5623 0.0000
vt 0.5653 0.5623 0.0000
vt 0.9874 0.3864 0.0000
vt 0.8467 0.4560 0.0000
vt 0.7060 0.4560 0.0000
vt 0.5653 0.3864 0.0000
# 15 texture coords

o Plane001
g Plane001
usemtl Material__2
s 1
f 17/31/17 18/32/17 19/33/17 20/34/17 
f 20/34/17 19/33/17 21/35/17 
f 21/35/17 19/33/17 22/36/17 23/37/17 
f 24/38/17 17/31/17 20/34/17 25/39/17 
f 25/39/17 20/34/17 21/35/17 26/40/17 
f 26/40/17 21/35/17 23/37/17 27/41/17 
f 28/42/17 24/38/17 25/39/17 29/43/17 
f 29/43/17 25/39/17 26/40/17 30/44/17 
f 30/44/17 26/40/17 27/41/17 31/45/17 
# 8 polygons - 1 triangles

#
# object Plane003
#

v  -13.3547 0.0000 -39.8781
v  -13.3547 0.0000 21.3182
v  10.7613 0.0000 21.3182
v  9.5139 0.0000 -29.8243
v  34.8772 0.0000 21.3182
v  33.6298 0.0000 -14.3069
v  60.8642 0.0000 21.3182
v  50.2615 0.0000 3.7800
# 8 vertices

vn 0.0000 1.0000 -0.0000
# 1 vertex normals

vt 0.4432 0.4094 0.0000
vt 0.4432 0.0113 0.0000
vt 0.6001 0.0113 0.0000
vt 0.5920 0.3440 0.0000
vt 0.7569 0.0113 0.0000
vt 0.7488 0.2431 0.0000
vt 0.9260 0.0113 0.0000
vt 0.8570 0.1254 0.0000
# 8 texture coords

o Plane003
g Plane003
usemtl Material__2
s 1
f 32/46/18 33/47/18 34/48/18 35/49/18 
f 35/49/18 34/48/18 36/50/18 37/51/18 
f 37/51/18 36/50/18 38/52/18 39/53/18 
# 3 polygons

