# 3ds Max Wavefront OBJ Exporter v0.97b - (c)2007 guruware
# File Created: 08.10.2018 09:48:41

mtllib King Arthur.mtl

#
# object Ground_Castle
#

v  -12.6391 0.7369 7.5241
v  -15.4047 0.7369 12.4780
v  -7.7442 0.7369 12.4365
v  -7.7442 0.7369 5.6483
v  -0.2726 0.7369 12.4365
v  -0.2726 0.7369 5.6483
v  7.1991 0.7369 12.4365
v  7.1991 0.7369 5.6483
v  15.3546 0.7369 12.4365
v  15.3546 0.7369 5.6483
v  -8.7217 0.7369 2.4568
v  -6.6926 0.7369 0.2406
v  -0.2726 0.7369 -0.7610
v  7.1991 0.7369 -0.7610
v  15.3546 0.7369 -0.7610
v  -2.4848 0.7369 -3.3774
v  1.0795 0.7369 -5.8683
v  7.1991 0.7369 -7.1704
v  15.3546 0.7369 -7.1704
v  4.9857 0.7369 -8.3215
v  10.1537 0.7369 -10.9756
v  15.4047 0.7369 -12.4780
# 22 vertices

vn 0.0000 1.0000 -0.0000
# 1 vertex normals

vt 0.3623 0.1172 0.0000
vt 0.3018 0.0088 0.0000
vt 0.4694 0.0097 0.0000
vt 0.4694 0.1583 0.0000
vt 0.6330 0.0097 0.0000
vt 0.6330 0.1583 0.0000
vt 0.7965 0.0097 0.0000
vt 0.7965 0.1583 0.0000
vt 0.9750 0.0097 0.0000
vt 0.9750 0.1583 0.0000
vt 0.4480 0.2281 0.0000
vt 0.4924 0.2766 0.0000
vt 0.6330 0.2986 0.0000
vt 0.7965 0.2986 0.0000
vt 0.9750 0.2986 0.0000
vt 0.5845 0.3558 0.0000
vt 0.6625 0.4103 0.0000
vt 0.7965 0.4388 0.0000
vt 0.9750 0.4388 0.0000
vt 0.7480 0.4640 0.0000
vt 0.8612 0.5221 0.0000
vt 0.9761 0.5550 0.0000
# 22 texture coords

o Ground_Castle
g Ground_Castle
usemtl Ground_Castle_wire_008061138
s 1
f 1/1/1 2/2/1 3/3/1 4/4/1 
f 3/3/1 5/5/1 6/6/1 4/4/1 
f 5/5/1 7/7/1 8/8/1 6/6/1 
f 7/7/1 9/9/1 10/10/1 8/8/1 
f 11/11/1 1/1/1 4/4/1 12/12/1 
f 12/12/1 4/4/1 6/6/1 13/13/1 
f 6/6/1 8/8/1 14/14/1 13/13/1 
f 8/8/1 10/10/1 15/15/1 14/14/1 
f 16/16/1 12/12/1 13/13/1 17/17/1 
f 17/17/1 13/13/1 14/14/1 18/18/1 
f 14/14/1 15/15/1 19/19/1 18/18/1 
f 20/20/1 17/17/1 18/18/1 21/21/1 
f 21/21/1 18/18/1 19/19/1 22/22/1 
# 13 polygons

#
# object Plane001
#

v  -10.8373 0.8748 9.9815
v  -12.6860 0.8748 12.0036
v  -10.2471 0.8748 10.7174
v  -5.8132 0.8748 5.9498
v  -5.0957 0.8748 6.8307
v  -1.7315 0.8748 2.7159
v  -0.9291 0.8748 3.6991
v  8.0024 0.8812 -5.0777
v  8.9513 0.8748 -3.8937
v  6.7666 0.9049 -6.3040
v  6.6030 0.9049 -5.9863
v  7.9928 0.9049 -5.0611
v  8.1831 0.9049 -5.2133
v  8.4500 0.9049 -4.4058
v  8.6811 0.9049 -4.5906
v  9.1792 0.9049 -3.9678
v  8.9890 0.9049 -3.8159
v  9.6484 0.9049 -2.4216
v  9.9507 0.9049 -2.5251
v  6.9411 0.9049 -6.5262
v  8.3827 0.9049 -5.3742
v  8.8809 0.9049 -4.7510
v  9.3790 0.9049 -4.1278
v  10.2203 0.9049 -2.6595
v  7.1047 0.9049 -6.7125
v  8.5608 0.9049 -5.5154
v  9.1037 0.9049 -4.9286
v  9.5547 0.9049 -4.2683
v  10.4562 0.9049 -2.8156
v  9.7533 0.9045 -6.0811
v  8.6904 0.9045 -5.3613
v  9.0682 0.9045 -4.9040
v  9.9414 0.9045 -5.8459
v  10.1076 0.9045 -5.6380
v  9.3597 0.9045 -4.5446
v  10.3036 0.9045 -5.3929
v  10.7265 0.9045 -6.7657
v  10.8689 0.9045 -6.5876
v  11.0352 0.9045 -6.3797
v  11.2210 0.9045 -6.1473
v  11.7335 0.9045 -7.4815
v  11.7867 0.9045 -7.3215
v  11.9460 0.9045 -7.1079
v  12.1800 0.9045 -6.9303
v  11.7710 0.9048 -7.3510
v  11.8821 0.9048 -7.1738
v  12.0305 0.9048 -7.0265
v  12.2030 0.9048 -6.9201
v  12.3917 0.9048 -6.8555
v  12.5892 0.9048 -6.8335
v  12.7875 0.9048 -6.8550
v  12.9792 0.9048 -6.9208
v  13.1564 0.9048 -7.0319
v  13.3037 0.9048 -7.1803
v  13.4101 0.9048 -7.3528
v  13.4747 0.9048 -7.5416
v  13.4966 0.9048 -7.7390
v  13.4752 0.9048 -7.9373
v  13.4093 0.9048 -8.1290
v  13.2983 0.9048 -8.3062
v  13.1498 0.9048 -8.4535
v  12.9774 0.9048 -8.5599
v  12.7886 0.9048 -8.6245
v  12.5912 0.9048 -8.6465
v  12.3928 0.9048 -8.6250
v  12.2012 0.9048 -8.5591
v  12.0240 0.9048 -8.4481
v  11.8767 0.9048 -8.2997
v  11.7703 0.9048 -8.1272
v  11.7057 0.9048 -7.9384
v  11.6837 0.9048 -7.7410
v  11.7052 0.9048 -7.5426
# 72 vertices

vn 0.0000 1.0000 -0.0000
vn -0.0002 1.0000 0.0002
vn 0.0022 1.0000 0.0036
vn 0.0026 1.0000 0.0034
# 4 vertex normals

vt 0.5662 0.5309 0.0000
vt 0.9580 0.5923 0.0000
vt 0.5660 0.6674 0.0000
vt 0.4261 0.6837 0.0000
vt 0.9726 0.6847 0.0000
vt 0.9725 0.7647 0.0000
vt 0.4252 0.7801 0.0000
vt 0.5329 0.7975 0.0000
vt 0.9625 0.7955 0.0000
vt 0.9617 0.8893 0.0000
vt 0.5318 0.9021 0.0000
vt 0.9892 0.9780 0.0000
vt 0.4154 0.9777 0.0000
vt 0.4160 0.9193 0.0000
vt 0.9892 0.9082 0.0000
vt 0.3105 0.1210 0.0000
vt 0.3413 0.1089 0.0000
vt 0.4136 0.2454 0.0000
vt 0.3979 0.2615 0.0000
vt 0.4697 0.2935 0.0000
vt 0.4506 0.3130 0.0000
vt 0.5033 0.3646 0.0000
vt 0.5191 0.3485 0.0000
vt 0.6413 0.4221 0.0000
vt 0.6290 0.4489 0.0000
vt 0.2885 0.1351 0.0000
vt 0.3812 0.2784 0.0000
vt 0.4340 0.3300 0.0000
vt 0.4868 0.3815 0.0000
vt 0.6142 0.4725 0.0000
vt 0.2698 0.1484 0.0000
vt 0.3666 0.2935 0.0000
vt 0.4156 0.3488 0.0000
vt 0.4722 0.3964 0.0000
vt 0.5976 0.4928 0.0000
vt 0.2394 0.5317 0.0000
vt 0.3502 0.5229 0.0000
vt 0.3494 0.5743 0.0000
vt 0.2394 0.5578 0.0000
vt 0.2394 0.5808 0.0000
vt 0.3491 0.6143 0.0000
vt 0.2394 0.6080 0.0000
vt 0.1366 0.5380 0.0000
vt 0.1366 0.5578 0.0000
vt 0.1366 0.5808 0.0000
vt 0.1366 0.6066 0.0000
vt 0.0298 0.5441 0.0000
vt 0.0349 0.5578 0.0000
vt 0.0356 0.5808 0.0000
vt 0.0294 0.6055 0.0000
vt 0.1525 0.2334 0.0000
vt 0.1853 0.2301 0.0000
vt 0.2181 0.2343 0.0000
vt 0.2481 0.2455 0.0000
vt 0.2744 0.2628 0.0000
vt 0.2963 0.2853 0.0000
vt 0.3128 0.3121 0.0000
vt 0.3232 0.3423 0.0000
vt 0.3265 0.3752 0.0000
vt 0.3223 0.4079 0.0000
vt 0.3111 0.4379 0.0000
vt 0.2939 0.4642 0.0000
vt 0.2714 0.4861 0.0000
vt 0.2446 0.5027 0.0000
vt 0.2143 0.5130 0.0000
vt 0.1815 0.5164 0.0000
vt 0.1487 0.5122 0.0000
vt 0.1188 0.5010 0.0000
vt 0.0924 0.4837 0.0000
vt 0.0705 0.4612 0.0000
vt 0.0540 0.4344 0.0000
vt 0.0436 0.4042 0.0000
vt 0.0403 0.3713 0.0000
vt 0.0445 0.3386 0.0000
vt 0.0557 0.3086 0.0000
vt 0.0729 0.2822 0.0000
vt 0.0954 0.2604 0.0000
vt 0.1222 0.2438 0.0000
# 78 texture coords

o Plane001
g Plane001
usemtl wire_228184153
s 1
f 23/23/2 24/24/2 25/25/2 
f 26/26/2 23/27/2 25/28/2 27/29/2 
f 28/30/3 26/31/2 27/32/2 29/33/2 
f 30/34/4 28/35/3 29/36/2 31/37/5 
f 32/38/2 33/39/2 34/40/2 35/41/2 
f 35/41/2 34/40/2 36/42/2 37/43/2 
f 38/44/2 39/45/2 40/46/2 41/47/2 
f 42/48/2 32/38/2 35/41/2 43/49/2 
f 43/49/2 35/41/2 37/43/2 44/50/2 
f 45/51/2 38/44/2 41/47/2 46/52/2 
f 47/53/2 42/48/2 43/49/2 48/54/2 
f 48/54/2 43/49/2 44/50/2 49/55/2 
f 50/56/2 45/51/2 46/52/2 51/57/2 
f 36/42/2 39/45/2 38/44/2 37/43/2 
f 37/43/2 38/44/2 45/51/2 44/50/2 
f 44/50/2 45/51/2 50/56/2 49/55/2 
f 52/58/2 53/59/2 54/60/2 55/61/2 
f 55/61/2 54/60/2 56/62/2 
f 56/62/2 54/60/2 57/63/2 58/64/2 
f 59/65/2 52/58/2 55/61/2 60/66/2 
f 60/66/2 55/61/2 56/62/2 61/67/2 
f 61/67/2 56/62/2 58/64/2 62/68/2 
f 63/69/2 59/65/2 60/66/2 64/70/2 
f 64/70/2 60/66/2 61/67/2 65/71/2 
f 65/71/2 61/67/2 62/68/2 66/72/2 
f 67/73/2 68/74/2 69/75/2 70/76/2 71/77/2 72/78/2 73/79/2 74/80/2 75/81/2 76/82/2 77/83/2 78/84/2 79/85/2 80/86/2 81/87/2 82/88/2 83/89/2 84/90/2 85/91/2 86/92/2 87/93/2 88/94/2 89/95/2 90/96/2 91/97/2 92/98/2 93/99/2 94/100/2 
# 24 polygons - 2 triangles

#
# object Box001
#

v  6.3656 0.7314 2.5598
v  8.4764 0.7391 5.3719
v  2.5864 0.7465 9.9620
v  0.4756 0.7389 7.1499
v  8.3678 10.8624 5.2125
v  2.4778 10.8699 9.8026
v  4.2882 9.7868 12.1616
v  10.1782 9.7794 7.5715
# 8 vertices

vn 0.0401 -0.4848 -0.8737
vn 0.7614 -0.6480 0.0199
vn -0.1837 -0.6442 0.7425
vn -0.8527 -0.4868 -0.1895
vn 0.2363 0.7355 -0.6350
vn -0.6740 0.7354 0.0700
vn -0.0124 0.3631 0.9317
vn 0.9052 0.3624 0.2218
# 8 vertex normals

vt 0.3050 0.6356 0.0000
vt 0.3030 0.7325 0.0000
vt 0.0876 0.7317 0.0000
vt 0.0896 0.6348 0.0000
vt 0.0889 0.8979 0.0000
vt 0.3033 0.9001 0.0000
vt 0.3030 0.9909 0.0000
vt 0.0886 0.9887 0.0000
vt 0.3043 0.7420 0.0000
vt 0.3035 0.8923 0.0000
vt 0.0889 0.8923 0.0000
vt 0.0897 0.7420 0.0000
vt 0.0753 0.9871 0.0000
vt 0.0075 0.9661 0.0000
vt 0.0075 0.7750 0.0000
vt 0.0714 0.7717 0.0000
vt 0.0198 0.2010 0.0000
vt 0.0188 0.0170 0.0000
vt 0.2519 0.0162 0.0000
vt 0.2529 0.2002 0.0000
vt 0.3806 0.9648 0.0000
vt 0.3128 0.9858 0.0000
vt 0.3167 0.7704 0.0000
vt 0.3805 0.7737 0.0000
# 24 texture coords

o Box001
g Box001
usemtl wire_148177027
s 2
f 95/101/6 96/102/7 97/103/8 98/104/9 
s 4
f 99/105/10 100/106/11 101/107/12 102/108/13 
s 8
f 95/109/6 98/110/9 100/111/11 99/112/10 
s 16
f 98/113/9 97/114/8 101/115/12 100/116/11 
s 32
f 97/117/8 96/118/7 102/119/13 101/120/12 
s 64
f 96/121/7 95/122/6 99/123/10 102/124/13 
# 6 polygons

